{
  "accessors": [
    {
      "bufferView": 2,
      "componentType": 5126,
      "count": 65532,
      "max": [
        0.008290999568998814,
        0.026704000309109688,
        0.3007040023803711
      ],
      "min": [
        -0.023956000804901123,
        -0.01716499961912632,
        0.25829899311065674
      ],
      "type": "VEC3"
    },
    {
      "bufferView": 2,
      "byteOffset": 786384,
      "componentType": 5126,
      "count": 65532,
      "max": [
        1.0,
        1.0,
        1.0
      ],
      "min": [
        -1.0,
        -0.9973445534706116,
        -1.0
      ],
      "type": "VEC3"
    },
    {
      "bufferView": 1,
      "componentType": 5126,
      "count": 65532,
      "max": [
        1.0000079870224,
        1.0000079870224
      ],
      "min": [
        0.0,
        0.0
      ],
      "type": "VEC2"
    },
    {
      "bufferView": 0,
      "componentType": 5125,
      "count": 355800,
      "type": "SCALAR"
    },
    {
      "bufferView": 2,
      "byteOffset": 1572768,
      "componentType": 5126,
      "count": 65532,
      "max": [
        0.008290999568998814,
        0.02645600028336048,
        0.3007040023803711
      ],
      "min": [
        -0.023956000804901123,
        -0.01853800006210804,
        0.25829899311065674
      ],
      "type": "VEC3"
    },
    {
      "bufferView": 2,
      "byteOffset": 2359152,
      "componentType": 5126,
      "count": 65532,
      "max": [
        1.0,
        1.0,
        1.0
      ],
      "min": [
        -1.0,
        -1.0,
        -1.0
      ],
      "type": "VEC3"
    },
    {
      "bufferView": 1,
      "byteOffset": 524256,
      "componentType": 5126,
      "count": 65532,
      "max": [
        1.0,
        1.0000070333480835
      ],
      "min": [
        0.0,
        0.0
      ],
      "type": "VEC2"
    },
    {
      "bufferView": 0,
      "byteOffset": 1423200,
      "componentType": 5125,
      "count": 351885,
      "type": "SCALAR"
    },
    {
      "bufferView": 2,
      "byteOffset": 3145536,
      "componentType": 5126,
      "count": 65532,
      "max": [
        0.005942999850958586,
        0.011630999855697155,
        0.2947080135345459
      ],
      "min": [
        -0.021378999575972557,
        -0.01853800006210804,
        0.27662500739097595
      ],
      "type": "VEC3"
    },
    {
      "bufferView": 2,
      "byteOffset": 3931920,
      "componentType": 5126,
      "count": 65532,
      "max": [
        0.9999575614929199,
        0.9787322878837585,
        0.9988411664962769
      ],
      "min": [
        -0.9999744296073914,
        -0.994907557964325,
        -0.9999731779098511
      ],
      "type": "VEC3"
    },
    {
      "bufferView": 1,
      "byteOffset": 1048512,
      "componentType": 5126,
      "count": 65532,
      "max": [
        0.0,
        0.0
      ],
      "min": [
        0.0,
        0.0
      ],
      "type": "VEC2"
    },
    {
      "bufferView": 0,
      "byteOffset": 2830740,
      "componentType": 5125,
      "count": 369885,
      "type": "SCALAR"
    },
    {
      "bufferView": 2,
      "byteOffset": 4718304,
      "componentType": 5126,
      "count": 27682,
      "max": [
        0.007240000180900097,
        0.011630999855697155,
        0.295960009098053
      ],
      "min": [
        -0.021609000861644745,
        -0.01853800006210804,
        0.25829899311065674
      ],
      "type": "VEC3"
    },
    {
      "bufferView": 2,
      "byteOffset": 5050488,
      "componentType": 5126,
      "count": 27682,
      "max": [
        0.9987021684646606,
        0.9984033107757568,
        0.9972551465034485
      ],
      "min": [
        -0.9993153214454651,
        -0.9992765188217163,
        -0.9980088472366333
      ],
      "type": "VEC3"
    },
    {
      "bufferView": 1,
      "byteOffset": 1572768,
      "componentType": 5126,
      "count": 27682,
      "max": [
        1.0,
        1.0000070333480835
      ],
      "min": [
        0.0,
        0.0
      ],
      "type": "VEC2"
    },
    {
      "bufferView": 0,
      "byteOffset": 4310280,
      "componentType": 5125,
      "count": 151857,
      "type": "SCALAR"
    },
    {
      "bufferView": 2,
      "byteOffset": 5382672,
      "componentType": 5126,
      "count": 6,
      "max": [
        0.006029999814927578,
        0.013759000226855278,
        0.29830101132392883
      ],
      "min": [
        -0.021695999428629875,
        0.007693000137805939,
        0.28027400374412537
      ],
      "type": "VEC3"
    },
    {
      "bufferView": 0,
      "byteOffset": 4917708,
      "componentType": 5125,
      "count": 6,
      "type": "SCALAR"
    },
    {
      "bufferView": 2,
      "byteOffset": 5382744,
      "componentType": 5126,
      "count": 3838,
      "max": [
        0.005872999783605337,
        0.022616999223828316,
        0.2846840023994446
      ],
      "min": [
        -0.021539000794291496,
        0.01635099947452545,
        0.27105700969696045
      ],
      "type": "VEC3"
    },
    {
      "bufferView": 2,
      "byteOffset": 5428800,
      "componentType": 5126,
      "count": 3838,
      "max": [
        0.9996427893638611,
        0.9993569850921631,
        0.9998844861984253
      ],
      "min": [
        -0.9996427893638611,
        -0.9995991587638855,
        -0.9997250437736511
      ],
      "type": "VEC3"
    },
    {
      "bufferView": 1,
      "byteOffset": 1794224,
      "componentType": 5126,
      "count": 3838,
      "max": [
        0.0,
        0.0
      ],
      "min": [
        0.0,
        0.0
      ],
      "type": "VEC2"
    },
    {
      "bufferView": 0,
      "byteOffset": 4917732,
      "componentType": 5125,
      "count": 15840,
      "type": "SCALAR"
    },
    {
      "bufferView": 2,
      "byteOffset": 5474856,
      "componentType": 5126,
      "count": 64738,
      "max": [
        0.002891999902203679,
        -0.006972000002861023,
        0.2795329988002777
      ],
      "min": [
        -0.018557999283075333,
        -0.01532800029963255,
        0.27361899614334106
      ],
      "type": "VEC3"
    },
    {
      "bufferView": 2,
      "byteOffset": 6251712,
      "componentType": 5126,
      "count": 64738,
      "max": [
        0.9999905824661255,
        0.9999555349349976,
        0.9999747276306152
      ],
      "min": [
        -0.9999905824661255,
        -0.9998942613601685,
        -0.9999829530715942
      ],
      "type": "VEC3"
    },
    {
      "bufferView": 1,
      "byteOffset": 1824928,
      "componentType": 5126,
      "count": 64738,
      "max": [
        1.0,
        1.0
      ],
      "min": [
        0.0,
        0.0
      ],
      "type": "VEC2"
    },
    {
      "bufferView": 0,
      "byteOffset": 4981092,
      "componentType": 5125,
      "count": 380928,
      "type": "SCALAR"
    },
    {
      "bufferView": 2,
      "byteOffset": 7028568,
      "componentType": 5126,
      "count": 1278,
      "max": [
        0.007637999951839447,
        -0.004162000026553869,
        0.2842710018157959
      ],
      "min": [
        -0.02330400049686432,
        -0.006459000054746866,
        0.28259900212287903
      ],
      "type": "VEC3"
    },
    {
      "bufferView": 2,
      "byteOffset": 7043904,
      "componentType": 5126,
      "count": 1278,
      "max": [
        0.9982227087020874,
        0.9220868349075317,
        0.9951812624931335
      ],
      "min": [
        -0.9982227087020874,
        -0.9942402839660645,
        -0.9960908889770508
      ],
      "type": "VEC3"
    },
    {
      "bufferView": 1,
      "byteOffset": 2342832,
      "componentType": 5126,
      "count": 1278,
      "max": [
        0.0,
        0.0
      ],
      "min": [
        0.0,
        0.0
      ],
      "type": "VEC2"
    },
    {
      "bufferView": 0,
      "byteOffset": 6504804,
      "componentType": 5125,
      "count": 7392,
      "type": "SCALAR"
    },
    {
      "bufferView": 2,
      "byteOffset": 7059240,
      "componentType": 5126,
      "count": 24786,
      "max": [
        0.008078999817371368,
        0.020212000235915184,
        0.29818499088287354
      ],
      "min": [
        -0.02374500036239624,
        -0.017294999212026596,
        0.2578420042991638
      ],
      "type": "VEC3"
    },
    {
      "bufferView": 2,
      "byteOffset": 7356672,
      "componentType": 5126,
      "count": 24786,
      "max": [
        0.9998892545700073,
        1.0,
        0.999998927116394
      ],
      "min": [
        -0.9998892545700073,
        -0.999970555305481,
        -0.9999350309371948
      ],
      "type": "VEC3"
    },
    {
      "bufferView": 1,
      "byteOffset": 2353056,
      "componentType": 5126,
      "count": 24786,
      "max": [
        0.0,
        0.0
      ],
      "min": [
        0.0,
        0.0
      ],
      "type": "VEC2"
    },
    {
      "bufferView": 0,
      "byteOffset": 6534372,
      "componentType": 5125,
      "count": 106302,
      "type": "SCALAR"
    },
    {
      "bufferView": 2,
      "byteOffset": 7654104,
      "componentType": 5126,
      "count": 65532,
      "max": [
        0.0070329997688531876,
        0.027103999629616737,
        0.2981080114841461
      ],
      "min": [
        -0.022701000794768333,
        -0.014620999805629253,
        0.2569989860057831
      ],
      "type": "VEC3"
    },
    {
      "bufferView": 2,
      "byteOffset": 8440488,
      "componentType": 5126,
      "count": 65532,
      "max": [
        0.9999675750732422,
        0.9998948574066162,
        1.0
      ],
      "min": [
        -0.9999634027481079,
        -0.9996107220649719,
        -0.9995571970939636
      ],
      "type": "VEC3"
    },
    {
      "bufferView": 1,
      "byteOffset": 2551344,
      "componentType": 5126,
      "count": 65532,
      "max": [
        1.0000200271606445,
        1.0000309944152832
      ],
      "min": [
        0.0,
        0.0
      ],
      "type": "VEC2"
    },
    {
      "bufferView": 0,
      "byteOffset": 6959580,
      "componentType": 5125,
      "count": 346191,
      "type": "SCALAR"
    },
    {
      "bufferView": 2,
      "byteOffset": 9226872,
      "componentType": 5126,
      "count": 44772,
      "max": [
        0.01077600009739399,
        0.026333000510931015,
        0.2981080114841461
      ],
      "min": [
        -0.02644200064241886,
        -0.014644999988377094,
        0.2569989860057831
      ],
      "type": "VEC3"
    },
    {
      "bufferView": 2,
      "byteOffset": 9764136,
      "componentType": 5126,
      "count": 44772,
      "max": [
        1.0,
        0.9998751878738403,
        0.9999998807907104
      ],
      "min": [
        -1.0,
        -0.9998329281806946,
        -0.9999998807907104
      ],
      "type": "VEC3"
    },
    {
      "bufferView": 1,
      "byteOffset": 3075600,
      "componentType": 5126,
      "count": 44772,
      "max": [
        1.470900058746338,
        1.0663000345230103
      ],
      "min": [
        -0.9869999885559082,
        -0.06629999727010727
      ],
      "type": "VEC2"
    },
    {
      "bufferView": 0,
      "byteOffset": 8344344,
      "componentType": 5125,
      "count": 200574,
      "type": "SCALAR"
    },
    {
      "bufferView": 2,
      "byteOffset": 10301400,
      "componentType": 5126,
      "count": 14159,
      "max": [
        0.01039000041782856,
        0.020080000162124634,
        0.2956770062446594
      ],
      "min": [
        -0.026055999100208282,
        -0.016377000138163567,
        0.25701001286506653
      ],
      "type": "VEC3"
    },
    {
      "bufferView": 2,
      "byteOffset": 10471308,
      "componentType": 5126,
      "count": 14159,
      "max": [
        1.0,
        0.9996711611747742,
        0.9998078942298889
      ],
      "min": [
        -1.0,
        -0.9996731877326965,
        -0.9997979998588562
      ],
      "type": "VEC3"
    },
    {
      "bufferView": 1,
      "byteOffset": 3433776,
      "componentType": 5126,
      "count": 14159,
      "max": [
        1.0,
        4.040599822998047
      ],
      "min": [
        -0.0,
        -0.00430000014603138
      ],
      "type": "VEC2"
    },
    {
      "bufferView": 0,
      "byteOffset": 9146640,
      "componentType": 5125,
      "count": 76404,
      "type": "SCALAR"
    },
    {
      "bufferView": 2,
      "byteOffset": 10641216,
      "componentType": 5126,
      "count": 320,
      "max": [
        0.002696000039577484,
        -0.0034000000450760126,
        0.26989099383354187
      ],
      "min": [
        -0.018362000584602356,
        -0.006821999792009592,
        0.26747599244117737
      ],
      "type": "VEC3"
    },
    {
      "bufferView": 2,
      "byteOffset": 10645056,
      "componentType": 5126,
      "count": 320,
      "max": [
        0.8370204567909241,
        -0.09069971740245819,
        -0.5178122520446777
      ],
      "min": [
        -0.8370204567909241,
        -0.31139427423477173,
        -0.5992890000343323
      ],
      "type": "VEC3"
    },
    {
      "bufferView": 1,
      "byteOffset": 3547048,
      "componentType": 5126,
      "count": 320,
      "max": [
        0.0,
        0.0
      ],
      "min": [
        0.0,
        0.0
      ],
      "type": "VEC2"
    },
    {
      "bufferView": 0,
      "byteOffset": 9452256,
      "componentType": 5125,
      "count": 900,
      "type": "SCALAR"
    }
  ],
  "asset": {
    "extras": {
      "author": "WANG (https://sketchfab.com/Wang_Design)",
      "license": "CC-BY-4.0 (http://creativecommons.org/licenses/by/4.0/)",
      "source": "https://sketchfab.com/3d-models/cyberpunk-mask-b82d6230bc2f4a7a97037300e02c8387",
      "title": "Cyberpunk Mask"
    },
    "generator": "Sketchfab-16.67.0",
    "version": "2.0"
  },
  "bufferViews": [
    {
      "buffer": 0,
      "byteLength": 9455856,
      "name": "floatBufferViews",
      "target": 34963
    },
    {
      "buffer": 0,
      "byteLength": 3549608,
      "byteOffset": 9455856,
      "byteStride": 8,
      "name": "floatBufferViews",
      "target": 34962
    },
    {
      "buffer": 0,
      "byteLength": 10648896,
      "byteOffset": 13005464,
      "byteStride": 12,
      "name": "floatBufferViews",
      "target": 34962
    }
  ],
  "buffers": [
    {
      "byteLength": 23654360,
      "uri": "scene.bin"
    }
  ],
  "extensionsUsed": [
    "KHR_materials_specular"
  ],
  "materials": [
    {
      "doubleSided": true,
      "extensions": {
        "KHR_materials_specular": {
          "specularColorFactor": [
            1.0,
            1.0,
            1.0
          ],
          "specularFactor": 0.4219899326265346
        }
      },
      "name": "1.005",
      "pbrMetallicRoughness": {
        "roughnessFactor": 0.06773174926249888
      }
    },
    {
      "doubleSided": true,
      "name": "Automotive_led_lights",
      "pbrMetallicRoughness": {
        "metallicFactor": 0.0,
        "roughnessFactor": 0.6
      }
    },
    {
      "doubleSided": true,
      "name": "b1.005",
      "pbrMetallicRoughness": {
        "baseColorFactor": [
          0.09019973969268866,
          0.09019973969268866,
          0.09019973969268866,
          1.0
        ],
        "roughnessFactor": 0.6
      }
    },
    {
      "doubleSided": true,
      "name": "b2.005",
      "pbrMetallicRoughness": {
        "baseColorFactor": [
          0.07934084204023072,
          0.18350401726122478,
          0.073753366184489,
          1.0
        ],
        "metallicFactor": 0.21587608048745927,
        "roughnessFactor": 0.6
      }
    }
  ],
  "meshes": [
    {
      "name": "Object_0",
      "primitives": [
        {
          "attributes": {
            "NORMAL": 1,
            "POSITION": 0,
            "TEXCOORD_0": 2
          },
          "indices": 3,
          "material": 3,
          "mode": 4
        }
      ]
    },
    {
      "name": "Object_1",
      "primitives": [
        {
          "attributes": {
            "NORMAL": 5,
            "POSITION": 4,
            "TEXCOORD_0": 6
          },
          "indices": 7,
          "material": 3,
          "mode": 4
        }
      ]
    },
    {
      "name": "Object_2",
      "primitives": [
        {
          "attributes": {
            "NORMAL": 9,
            "POSITION": 8,
            "TEXCOORD_0": 10
          },
          "indices": 11,
          "material": 3,
          "mode": 4
        }
      ]
    },
    {
      "name": "Object_3",
      "primitives": [
        {
          "attributes": {
            "NORMAL": 13,
            "POSITION": 12,
            "TEXCOORD_0": 14
          },
          "indices": 15,
          "material": 3,
          "mode": 4
        }
      ]
    },
    {
      "name": "Object_4",
      "primitives": [
        {
          "attributes": {
            "POSITION": 16
          },
          "indices": 17,
          "material": 1,
          "mode": 1
        }
      ]
    },
    {
      "name": "Object_5",
      "primitives": [
        {
          "attributes": {
            "NORMAL": 19,
            "POSITION": 18,
            "TEXCOORD_0": 20
          },
          "indices": 21,
          "material": 1,
          "mode": 4
        }
      ]
    },
    {
      "name": "Object_6",
      "primitives": [
        {
          "attributes": {
            "NORMAL": 23,
            "POSITION": 22,
            "TEXCOORD_0": 24
          },
          "indices": 25,
          "material": 1,
          "mode": 4
        }
      ]
    },
    {
      "name": "Object_7",
      "primitives": [
        {
          "attributes": {
            "NORMAL": 27,
            "POSITION": 26,
            "TEXCOORD_0": 28
          },
          "indices": 29,
          "material": 1,
          "mode": 4
        }
      ]
    },
    {
      "name": "Object_8",
      "primitives": [
        {
          "attributes": {
            "NORMAL": 31,
            "POSITION": 30,
            "TEXCOORD_0": 32
          },
          "indices": 33,
          "material": 2,
          "mode": 4
        }
      ]
    },
    {
      "name": "Object_9",
      "primitives": [
        {
          "attributes": {
            "NORMAL": 35,
            "POSITION": 34,
            "TEXCOORD_0": 36
          },
          "indices": 37,
          "material": 2,
          "mode": 4
        }
      ]
    },
    {
      "name": "Object_10",
      "primitives": [
        {
          "attributes": {
            "NORMAL": 39,
            "POSITION": 38,
            "TEXCOORD_0": 40
          },
          "indices": 41,
          "material": 2,
          "mode": 4
        }
      ]
    },
    {
      "name": "Object_11",
      "primitives": [
        {
          "attributes": {
            "NORMAL": 43,
            "POSITION": 42,
            "TEXCOORD_0": 44
          },
          "indices": 45,
          "material": 0,
          "mode": 4
        }
      ]
    },
    {
      "name": "Object_12",
      "primitives": [
        {
          "attributes": {
            "NORMAL": 47,
            "POSITION": 46,
            "TEXCOORD_0": 48
          },
          "indices": 49,
          "material": 0,
          "mode": 4
        }
      ]
    }
  ],
  "nodes": [
    {
      "children": [
        1
      ],
      "matrix": [
        1.0,
        0.0,
        0.0,
        0.0,
        0.0,
        2.220446049250313e-16,
        -1.0,
        0.0,
        0.0,
        1.0,
        2.220446049250313e-16,
        0.0,
        0.0,
        0.0,
        0.0,
        1.0
      ],
      "name": "Sketchfab_model"
    },
    {
      "children": [
        2,
        3,
        4,
        5,
        6,
        7,
        8,
        9,
        10,
        11,
        12,
        13,
        14
      ],
      "name": "mask.obj.cleaner.materialmerger.gles"
    },
    {
      "mesh": 0,
      "name": "Object_2"
    },
    {
      "mesh": 1,
      "name": "Object_3"
    },
    {
      "mesh": 2,
      "name": "Object_4"
    },
    {
      "mesh": 3,
      "name": "Object_5"
    },
    {
      "mesh": 4,
      "name": "Object_6"
    },
    {
      "mesh": 5,
      "name": "Object_7"
    },
    {
      "mesh": 6,
      "name": "Object_8"
    },
    {
      "mesh": 7,
      "name": "Object_9"
    },
    {
      "mesh": 8,
      "name": "Object_10"
    },
    {
      "mesh": 9,
      "name": "Object_11"
    },
    {
      "mesh": 10,
      "name": "Object_12"
    },
    {
      "mesh": 11,
      "name": "Object_13"
    },
    {
      "mesh": 12,
      "name": "Object_14"
    }
  ],
  "scene": 0,
  "scenes": [
    {
      "name": "Sketchfab_Scene",
      "nodes": [
        0
      ]
    }
  ]
}
